# xmcd
#
# Track frame offsets: 
#        182
#        14875
#        31537
#        48970
#        64387
#        80882
#        95870
#        114552
#        130227
#        147540
#
# Disc length: 2171 seconds
#
# Revision: 5
# Processed by: cddbd v1.5PL3 Copyright (c) Steve Scherf et al.
# Submitted via: ExactAudioCopy v0.95a3
#
DISCID=9508790a
DTITLE=Jo Dee Messina - I'm Alright
DYEAR=1998
DGENRE=Country
TTITLE0=I'm Alright
TTITLE1=Stand Beside Me
TTITLE2=Even God Must Get The Blues
TTITLE3=No Time For Tears
TTITLE4=Lesson In Leavin'
TTITLE5=Bye Bye
TTITLE6=Silver Thunderbird
TTITLE7=I Know A Heartache
TTITLE8=Because You Love Me
TTITLE9=Cover Me
EXTD=YEAR: 1998 ID3G:   2
EXTT0=
EXTT1=
EXTT2=
EXTT3=
EXTT4=
EXTT5=
EXTT6=
EXTT7=
EXTT8=
EXTT9=
PLAYORDER=
